<svg width="50" height="50" fill="none" xmlns="http://www.w3.org/2000/svg"><path fill="#555" d="M0 0h50v50H0z"/><path d="M16 43.824V6h10.624c1.835 0 3.413.47 4.736 1.408 1.365.896 2.048 2.496 2.048 4.8v5.312c0 1.75-.32 3.179-.96 4.288-.64 1.067-1.45 1.877-2.432 2.432a8.287 8.287 0 01-3.008.96c.683.085 1.365.576 2.048 1.472a8.103 8.103 0 011.472 2.816l4.416 14.336h-1.088l-3.904-12.8c-.512-1.664-1.216-3.008-2.112-4.032-.896-1.024-2.133-1.536-3.712-1.536h-7.104v18.368H16zm1.024-19.392h7.744c2.176 0 3.99-.512 5.44-1.536 1.45-1.024 2.176-2.773 2.176-5.248V12.4c0-1.835-.555-3.179-1.664-4.032-1.11-.896-2.39-1.344-3.84-1.344h-9.856v17.408z" fill="#fff"/></svg>