<svg width="50" height="50" fill="none" xmlns="http://www.w3.org/2000/svg"><path fill="#555" d="M0 0h50v50H0z"/><path d="M42.625 45.563c-5.792 0-10.854-3-15.188-9a83.915 83.915 0 01-1.312-1.876c-.5-.791-1.438-2.187-2.813-4.187-.666-.958-1.27-1.75-1.812-2.375a4.807 4.807 0 00-1.813-1.5c-.666-.333-1.583-.5-2.75-.5-.458 0-.833.063-1.125.188-.25.125-.374.416-.374.875v9.187c0 2.75.166 4.563.5 5.438.166.333.562.645 1.187.937.667.292 1.375.52 2.125.688.75.124 1.292.187 1.625.187.167 0 .25.292.25.875 0 .292-.042.604-.125.938a260.952 260.952 0 01-5.188-.25c-1.333-.084-2.312-.105-2.937-.063l-7.625.313c-.125-.126-.188-.5-.188-1.126 0-.541.063-.812.188-.812.417 0 .917-.063 1.5-.188.625-.124 1.208-.27 1.75-.437.583-.208.938-.438 1.063-.688.291-.458.437-2.416.437-5.874V12.686c0-1.208-.042-2.27-.125-3.187-.042-.917-.146-1.646-.313-2.188-.083-.25-.416-.479-1-.687a10.381 10.381 0 00-1.812-.5c-.625-.125-1.125-.188-1.5-.188-.167 0-.25-.25-.25-.75 0-.541.083-.895.25-1.062l7.5.125c1.208.042 2.688.02 4.438-.063C18.938 4.063 20.395 4 21.563 4c2.25 0 4.395.438 6.437 1.313 2.083.875 3.77 2.166 5.063 3.875 1.333 1.708 2 3.791 2 6.25 0 1.75-.667 3.583-2 5.5-1.292 1.916-3.063 3.395-5.313 4.437-.417.167-.542.375-.375.625 2.042 4.333 4.438 8 7.188 11 4 4.375 7.25 6.563 9.75 6.563.124.25.187.541.187.874 0 .376-.063.688-.188.938-.416.125-.979.188-1.687.188zm-21.75-22.126h1.563c1 0 2.02-.333 3.062-1 1.083-.666 1.98-1.604 2.688-2.812.75-1.208 1.125-2.604 1.125-4.188 0-5.791-2.917-8.687-8.75-8.687-1.917 0-3.375.146-4.375.438-.375.083-.605.77-.688 2.062a148.79 148.79 0 00-.063 4.813v7.562c0 1.208 1.813 1.813 5.438 1.813z" fill="#fff"/></svg>