<svg width="50" height="50" fill="none" xmlns="http://www.w3.org/2000/svg"><path fill="#555" d="M0 0h50v50H0z"/><path d="M9 48.912V2h14.656c3.2 0 6.016.427 8.448 1.28 2.475.81 4.416 2.176 5.824 4.096 1.408 1.92 2.112 4.501 2.112 7.744 0 3.67-.981 6.613-2.944 8.832-1.92 2.176-4.459 3.648-7.616 4.416l11.904 20.544h-6.656L23.336 29.008h-8.448v19.904H9zm5.888-24.64h7.872c3.67 0 6.485-.747 8.448-2.24 1.963-1.536 2.944-3.84 2.944-6.912s-.981-5.227-2.944-6.464S26.429 6.8 22.76 6.8h-7.872v17.472z" fill="#fff"/></svg>