<svg width="805" height="88" fill="none" xmlns="http://www.w3.org/2000/svg"><path fill="#555" d="M0 0h805v88H0z"/><path d="M28.744 27.912l2.112.192c.736.064 1.488.096 2.256.096H49.72c.672 0 1.408-.016 2.208-.048a35.113 35.113 0 002.256-.24v3.984a24.974 24.974 0 00-2.256-.096 53.11 53.11 0 00-2.208-.048H33.16c-.8 0-1.584.016-2.352.048-.736 0-1.424.032-2.064.096v-3.984zM23.08 39.96c.64.064 1.296.128 1.968.192a47.58 47.58 0 002.16.048h31.44c.512 0 1.12-.016 1.824-.048a16.22 16.22 0 001.92-.192v3.984a29.783 29.783 0 00-1.824-.048 40.439 40.439 0 00-1.92-.048H25.096c-.704 0-1.376.032-2.016.096V39.96zm22.56 1.968c0 3.008-.224 5.776-.672 8.304-.416 2.496-1.152 4.752-2.208 6.768-.576 1.056-1.36 2.128-2.352 3.216a27.036 27.036 0 01-3.264 3.024 21.959 21.959 0 01-3.84 2.496l-3.552-2.64a21.362 21.362 0 005.232-3.12c1.632-1.312 2.912-2.72 3.84-4.224a15.749 15.749 0 002.304-6.336c.32-2.336.48-4.832.48-7.488h4.032zm11.04-17.904c.416.544.864 1.216 1.344 2.016.48.768.944 1.552 1.392 2.352.48.8.88 1.536 1.2 2.208l-2.592 1.152a47.171 47.171 0 00-1.824-3.36 48.289 48.289 0 00-2.064-3.312l2.544-1.056zm5.28-1.92c.416.576.88 1.264 1.392 2.064.512.8 1.008 1.6 1.488 2.4.48.768.864 1.456 1.152 2.064L63.4 29.784a42.17 42.17 0 00-1.872-3.408c-.704-1.248-1.408-2.32-2.112-3.216l2.544-1.056zm43.296 4.272a55.933 55.933 0 011.968 4.512c.352.8.624 1.52.816 2.16l-2.352.816a33.255 33.255 0 00-.816-2.256l-.96-2.4c-.32-.8-.64-1.504-.96-2.112l2.304-.72zm4.752-1.44c.32.576.656 1.264 1.008 2.064.352.768.704 1.552 1.056 2.352.352.8.624 1.536.816 2.208l-2.352.768a92.027 92.027 0 00-1.344-3.456 35.09 35.09 0 00-1.488-3.216l2.304-.72zm-9.312 16.848c0 3.2-.208 6.048-.624 8.544-.416 2.464-1.136 4.656-2.16 6.576-.992 1.888-2.384 3.584-4.176 5.088-1.76 1.472-4.016 2.832-6.768 4.08L83.752 63c2.176-.832 4.08-1.76 5.712-2.784a14.783 14.783 0 004.08-3.888c1.088-1.536 1.904-3.44 2.448-5.712.544-2.304.816-5.136.816-8.496V30.456c0-.96-.032-1.792-.096-2.496-.032-.736-.064-1.216-.096-1.44h4.32c-.032.224-.08.704-.144 1.44a28.035 28.035 0 00-.096 2.496v11.328zM83.368 26.808c0 .224-.032.656-.096 1.296a20.981 20.981 0 00-.096 2.16V47.88c0 .576.016 1.184.048 1.824.032.608.048 1.136.048 1.584.032.448.064.752.096.912h-4.272c.032-.16.064-.464.096-.912s.064-.976.096-1.584c.032-.608.048-1.216.048-1.824V30.312c0-.544-.016-1.12-.048-1.728a14.378 14.378 0 00-.192-1.776h4.272zM69.352 36.12c.128.032.448.08.96.144.512.032 1.104.08 1.776.144.704.032 1.392.048 2.064.048h31.776c1.088 0 2.016-.032 2.784-.096.768-.064 1.312-.128 1.632-.192v4.08c-.256-.032-.784-.064-1.584-.096s-1.728-.048-2.784-.048H74.152c-.704 0-1.392.016-2.064.048-.64 0-1.216.016-1.728.048-.48.032-.816.064-1.008.096V36.12zm49.776 9.552c4.16-1.12 8.032-2.48 11.616-4.08 3.584-1.6 6.704-3.232 9.36-4.896a62.935 62.935 0 004.848-3.408 59.735 59.735 0 004.512-3.888 47.145 47.145 0 003.744-3.984l3.216 2.976a61.036 61.036 0 01-4.368 4.224 69.831 69.831 0 01-4.992 3.984 100.032 100.032 0 01-5.424 3.648 96.242 96.242 0 01-5.952 3.264 84.961 84.961 0 01-7.056 3.168 125.843 125.843 0 01-7.584 2.736l-1.92-3.744zm20.208-6.96l4.128-1.248v23.808c.032.672.064 1.296.096 1.872.064.576.128 1.024.192 1.344h-4.704c.032-.32.064-.768.096-1.344.064-.576.112-1.2.144-1.872.032-.672.048-1.312.048-1.92v-20.64zm34.56-10.896a54.194 54.194 0 012.976 2.16 77.823 77.823 0 013.408 2.688 79.618 79.618 0 013.312 2.736 53.313 53.313 0 012.544 2.352l-3.024 3.024a97.775 97.775 0 00-2.352-2.256 75.3 75.3 0 00-3.168-2.784 81.818 81.818 0 00-3.408-2.784c-1.12-.896-2.128-1.632-3.024-2.208l2.736-2.928zm-4.128 32.16c2.816-.416 5.376-.992 7.68-1.728 2.336-.736 4.464-1.568 6.384-2.496 1.92-.928 3.632-1.856 5.136-2.784a42.156 42.156 0 006.816-5.28c2.08-2.016 3.904-4.096 5.472-6.24 1.568-2.144 2.816-4.192 3.744-6.144l2.304 4.08c-1.088 1.984-2.432 4-4.032 6.048a51.745 51.745 0 01-5.424 5.904 44.458 44.458 0 01-6.672 5.136c-1.6.992-3.36 1.968-5.28 2.928-1.888.96-3.968 1.84-6.24 2.64-2.24.768-4.688 1.392-7.344 1.872l-2.544-3.936zm68.304-29.76c-.32 2.496-.736 5.104-1.248 7.824a69.68 69.68 0 01-1.872 7.92c-.96 3.296-2.032 6.048-3.216 8.256-1.152 2.208-2.4 3.872-3.744 4.992-1.344 1.12-2.752 1.68-4.224 1.68-1.408 0-2.768-.512-4.08-1.536-1.312-1.024-2.384-2.496-3.216-4.416-.832-1.952-1.248-4.24-1.248-6.864 0-2.624.528-5.104 1.584-7.44a20.265 20.265 0 014.464-6.192c1.92-1.824 4.16-3.264 6.72-4.32 2.56-1.056 5.296-1.584 8.208-1.584 2.816 0 5.344.464 7.584 1.392 2.272.928 4.208 2.208 5.808 3.84 1.6 1.6 2.832 3.472 3.696 5.616.864 2.112 1.296 4.384 1.296 6.816 0 3.36-.72 6.32-2.16 8.88-1.408 2.56-3.456 4.64-6.144 6.24-2.656 1.6-5.888 2.656-9.696 3.168l-2.256-3.552c.768-.096 1.504-.192 2.208-.288a23.593 23.593 0 001.92-.336 19.204 19.204 0 004.464-1.632 15.987 15.987 0 003.936-2.88c1.152-1.184 2.064-2.576 2.736-4.176.704-1.632 1.056-3.488 1.056-5.568 0-1.952-.32-3.76-.96-5.424a12.791 12.791 0 00-2.832-4.464c-1.248-1.28-2.768-2.288-4.56-3.024-1.792-.736-3.84-1.104-6.144-1.104-2.624 0-5.008.48-7.152 1.44-2.112.96-3.92 2.224-5.424 3.792-1.472 1.536-2.608 3.232-3.408 5.088-.8 1.824-1.2 3.616-1.2 5.376 0 2.016.256 3.68.768 4.992.544 1.28 1.184 2.224 1.92 2.832.768.608 1.52.912 2.256.912.768 0 1.552-.368 2.352-1.104.8-.768 1.616-1.984 2.448-3.648.832-1.696 1.648-3.888 2.448-6.576a66.692 66.692 0 001.776-7.344c.512-2.592.88-5.136 1.104-7.632l4.032.048zm52.32-2.208h3.264v34.32h-3.264v-34.32zm-9.456-1.488h22.704v39.312h-3.408V29.88H284.2v36.336h-3.264V26.52zm1.728 16.656h19.056v3.264h-19.056v-3.264zm0 17.088h18.96v3.36h-18.96v-3.36zm-13.728-14.976h3.264v21.504h-3.264V45.288zm-.432-22.656l3.216 1.296a147.452 147.452 0 01-1.968 3.696 126.8 126.8 0 01-2.112 3.696 56.2 56.2 0 01-2.016 3.168l-2.496-1.152a44.493 44.493 0 001.92-3.264 107.34 107.34 0 001.92-3.84 57.425 57.425 0 001.536-3.6zm5.904 5.568l3.072 1.44a211.947 211.947 0 01-3.744 5.664 166.992 166.992 0 01-4.176 5.76c-1.376 1.856-2.688 3.472-3.936 4.848l-2.208-1.248a123.559 123.559 0 002.88-3.648 84.156 84.156 0 002.976-4.272c.992-1.504 1.92-2.992 2.784-4.464a89.747 89.747 0 002.352-4.08zm-13.584 4.704l1.776-2.4a31.083 31.083 0 012.64 2.448 36.428 36.428 0 012.448 2.592c.768.832 1.36 1.6 1.776 2.304l-1.92 2.736c-.384-.736-.96-1.552-1.728-2.448a37.648 37.648 0 00-2.4-2.736 31.21 31.21 0 00-2.592-2.496zm12.24 6.24l2.688-1.152a28.454 28.454 0 012.064 3.36 40.12 40.12 0 011.776 3.504c.544 1.12.944 2.128 1.2 3.024l-2.88 1.392c-.256-.896-.64-1.92-1.152-3.072a52.35 52.35 0 00-1.728-3.6 35.947 35.947 0 00-1.968-3.456zm-12.624 4.752c2.208-.128 4.848-.288 7.92-.48 3.072-.224 6.208-.448 9.408-.672v2.928c-2.976.256-5.936.528-8.88.816-2.944.256-5.568.48-7.872.672l-.576-3.264zm13.488 6.912l2.736-.912a46.243 46.243 0 011.968 4.848c.64 1.728 1.088 3.216 1.344 4.464L277 60.216c-.128-.864-.368-1.824-.72-2.88a50.192 50.192 0 00-1.104-3.312 33.742 33.742 0 00-1.248-3.216zm-10.464-.72l3.072.528a52.996 52.996 0 01-1.296 6.72c-.544 2.176-1.2 4.032-1.968 5.568a6.01 6.01 0 00-.816-.432c-.352-.192-.72-.368-1.104-.528a7.376 7.376 0 00-.912-.432c.768-1.472 1.392-3.216 1.872-5.232a67.98 67.98 0 001.152-6.192zM335.8 25.512h14.4v3.408h-10.896v37.92H335.8V25.512zm-25.584 2.496h22.944v3.216h-22.944v-3.216zm-1.2 13.296h24.816v3.264h-24.816v-3.264zm10.848-18.432h3.504v7.056h-3.504v-7.056zm-6.624 9.984l3.024-.624a31.959 31.959 0 011.392 3.984c.416 1.44.688 2.672.816 3.696l-3.216.816c-.096-1.088-.336-2.352-.72-3.792a38.335 38.335 0 00-1.296-4.08zm13.728-.96l3.456.816a274.94 274.94 0 01-1.632 4.368c-.544 1.472-1.072 2.736-1.584 3.792l-2.928-.816c.32-.736.64-1.584.96-2.544.352-.96.672-1.936.96-2.928.32-.992.576-1.888.768-2.688zM313.48 60.84h15.792v3.216H313.48V60.84zm-1.248-12.048h18.912v17.856h-3.504V51.96h-12.048v14.928h-3.36V48.792zm37.056-23.28h.672l.624-.144 2.592 1.68a278.85 278.85 0 01-3.216 7.296 195.787 195.787 0 01-3.456 7.2c1.632 1.504 2.88 2.944 3.744 4.32.864 1.344 1.472 2.624 1.824 3.84.352 1.216.528 2.4.528 3.552 0 1.504-.192 2.8-.576 3.888-.384 1.056-.992 1.872-1.824 2.448-.832.544-1.872.896-3.12 1.056-.64.064-1.328.096-2.064.096a49.74 49.74 0 01-2.16-.048 10.671 10.671 0 00-.288-1.776 5.907 5.907 0 00-.72-1.776c.736.064 1.424.112 2.064.144.64 0 1.2-.016 1.68-.048.416-.032.8-.08 1.152-.144.352-.096.672-.224.96-.384.512-.32.864-.816 1.056-1.488.224-.672.336-1.456.336-2.352-.032-1.504-.48-3.152-1.344-4.944-.864-1.824-2.528-3.792-4.992-5.904a63.166 63.166 0 001.872-3.888c.608-1.408 1.2-2.8 1.776-4.176a203.392 203.392 0 001.584-3.984c.48-1.248.912-2.352 1.296-3.312v-1.152zm33.216-.624c-.064.416-.128.88-.192 1.392-.032.512-.064 1.12-.096 1.824 0 .48-.016 1.2-.048 2.16v10.224c0 1.6.032 3.28.096 5.04.064 1.76.144 3.472.24 5.136.096 1.664.176 3.184.24 4.56a74.24 74.24 0 01.096 3.264c0 1.12-.272 2.192-.816 3.216-.512 1.024-1.392 1.856-2.64 2.496-1.216.672-2.88 1.008-4.992 1.008-3.456 0-6.096-.608-7.92-1.824-1.824-1.184-2.736-2.928-2.736-5.232 0-1.472.432-2.752 1.296-3.84.896-1.088 2.176-1.936 3.84-2.544 1.664-.64 3.648-.96 5.952-.96 2.528 0 4.896.304 7.104.912 2.24.576 4.288 1.312 6.144 2.208 1.856.896 3.504 1.84 4.944 2.832 1.44.96 2.624 1.824 3.552 2.592l-2.208 3.408c-1.088-1.024-2.352-2.048-3.792-3.072a34.606 34.606 0 00-4.656-2.832 26.095 26.095 0 00-5.424-2.064c-1.92-.544-3.968-.816-6.144-.816-2.304 0-4.064.384-5.28 1.152-1.184.768-1.776 1.712-1.776 2.832 0 .704.224 1.36.672 1.968.448.576 1.168 1.04 2.16 1.392.992.352 2.272.528 3.84.528.928 0 1.776-.112 2.544-.336.768-.256 1.376-.688 1.824-1.296.48-.608.72-1.456.72-2.544 0-.928-.032-2.128-.096-3.6-.032-1.504-.08-3.088-.144-4.752-.064-1.696-.128-3.328-.192-4.896-.032-1.568-.048-2.88-.048-3.936v-9.936c.032-1.024.048-1.952.048-2.784 0-.384-.016-.88-.048-1.488s-.08-1.072-.144-1.392h4.08zM364.12 30.12c.8.128 1.728.256 2.784.384 1.056.128 2.16.256 3.312.384 1.184.096 2.304.176 3.36.24 1.088.032 2.032.048 2.832.048 3.04 0 6.144-.112 9.312-.336 3.2-.224 6.352-.592 9.456-1.104l-.048 3.504c-1.76.192-3.68.384-5.76.576-2.08.192-4.224.352-6.432.48-2.176.128-4.336.192-6.48.192-1.12 0-2.448-.048-3.984-.144a203.382 203.382 0 01-4.56-.336 571.73 571.73 0 01-3.744-.336l-.048-3.552zm-.24 10.176c.864.128 1.824.256 2.88.384a51.59 51.59 0 003.264.288c1.12.064 2.192.128 3.216.192 1.024.032 1.936.048 2.736.048 2.336 0 4.592-.048 6.768-.144 2.208-.128 4.368-.288 6.48-.48 2.144-.224 4.256-.496 6.336-.816l-.048 3.6c-1.6.224-3.2.416-4.8.576-1.568.128-3.152.24-4.752.336-1.568.096-3.184.176-4.848.24-1.632.032-3.36.048-5.184.048-1.088 0-2.352-.032-3.792-.096a219.69 219.69 0 01-4.32-.24 89.311 89.311 0 01-3.888-.336l-.048-3.6zm42.912-8.88c.896-.032 1.712-.064 2.448-.096.768-.064 1.376-.112 1.824-.144a100.3 100.3 0 013.312-.336c1.472-.16 3.152-.32 5.04-.48 1.888-.192 3.92-.384 6.096-.576 2.176-.192 4.368-.384 6.576-.576 1.76-.16 3.424-.288 4.992-.384 1.568-.128 3.024-.224 4.368-.288a88.877 88.877 0 013.6-.192v3.84c-.896 0-1.92.016-3.072.048a59.125 59.125 0 00-3.408.192c-1.12.096-2.096.272-2.928.528a14.018 14.018 0 00-4.608 2.496 16.942 16.942 0 00-3.456 3.792 18.693 18.693 0 00-2.208 4.464c-.48 1.536-.72 3.024-.72 4.464 0 1.856.32 3.488.96 4.896a10.535 10.535 0 002.592 3.504c1.12.96 2.384 1.744 3.792 2.352a22.652 22.652 0 004.464 1.392c1.6.288 3.184.448 4.752.48l-1.392 3.984a25.93 25.93 0 01-5.376-.768 23.914 23.914 0 01-5.136-1.824 17.786 17.786 0 01-4.368-3.12 13.881 13.881 0 01-3.024-4.368c-.736-1.664-1.104-3.568-1.104-5.712 0-2.496.432-4.8 1.296-6.912.896-2.144 2.032-4.016 3.408-5.616 1.376-1.6 2.8-2.832 4.272-3.696-1.024.128-2.304.272-3.84.432-1.504.16-3.12.336-4.848.528-1.728.16-3.472.352-5.232.576-1.728.224-3.344.448-4.848.672-1.504.192-2.768.4-3.792.624l-.432-4.176zm31.344 6.672c.352.512.768 1.168 1.248 1.968a43.638 43.638 0 011.488 2.4c.48.8.88 1.568 1.2 2.304l-2.448 1.152a40.561 40.561 0 00-1.824-3.504 31.89 31.89 0 00-2.112-3.264l2.448-1.056zm5.232-2.016a43.3 43.3 0 011.344 1.92 43.638 43.638 0 011.488 2.4c.512.8.96 1.568 1.344 2.304l-2.496 1.2a41.717 41.717 0 00-1.92-3.504 34.93 34.93 0 00-2.112-3.216l2.352-1.104zm22.176 15.264h3.504v10.032c0 .672.176 1.12.528 1.344.384.192 1.216.288 2.496.288h8.64c.736 0 1.28-.128 1.632-.384.384-.288.656-.848.816-1.68.16-.864.272-2.144.336-3.84.288.192.608.384.96.576.384.16.784.304 1.2.432.416.128.784.24 1.104.336-.16 2.112-.432 3.728-.816 4.848-.352 1.12-.912 1.888-1.68 2.304-.768.448-1.856.672-3.264.672h-9.216c-1.632 0-2.912-.144-3.84-.432-.896-.288-1.52-.784-1.872-1.488-.352-.704-.528-1.696-.528-2.976V51.336zm3.12-2.208l2.544-2.064a30.244 30.244 0 013.408 2.064 28.987 28.987 0 013.216 2.4c.992.832 1.792 1.632 2.4 2.4l-2.736 2.304c-.544-.768-1.296-1.568-2.256-2.4a37.911 37.911 0 00-3.168-2.544 26.332 26.332 0 00-3.408-2.16zm16.656 3.696l3.024-1.584a35.322 35.322 0 013.6 3.648 40.122 40.122 0 013.168 4.08c.928 1.344 1.632 2.608 2.112 3.792l-3.312 1.68c-.448-1.152-1.12-2.4-2.016-3.744a37.589 37.589 0 00-3.024-4.128 33.041 33.041 0 00-3.552-3.744zm-26.016-1.248l3.216.96a35.909 35.909 0 01-2.304 6.768c-.992 2.176-2.448 3.952-4.368 5.328l-2.928-1.968c1.728-1.216 3.104-2.816 4.128-4.8a23.868 23.868 0 002.256-6.288zm-1.968-23.136h35.328v17.424h-3.6V31.752h-28.272v14.496h-3.456V28.44zm2.112 12.288h31.296v3.264h-31.296v-3.264zm13.584-18.048h3.6v26.112h-3.6V22.68zm48.096 0h3.648v7.008h-3.648V22.68zm-18.432 4.752h40.56v9.264h-3.696v-6.048h-33.312v6.048h-3.552v-9.264zm4.08 8.784h32.784v3.024h-32.784v-3.024zm-4.8 14.88h42.288v3.216h-42.288v-3.216zm5.568-7.536h31.392v3.024h-31.392V43.56zm17.904 8.304c1.504 3.328 3.904 5.984 7.2 7.968 3.296 1.952 7.36 3.264 12.192 3.936-.384.384-.8.88-1.248 1.488-.416.64-.736 1.2-.96 1.68-3.392-.608-6.416-1.52-9.072-2.736-2.624-1.216-4.88-2.784-6.768-4.704s-3.424-4.208-4.608-6.864l3.264-.768zm-4.416-19.68h3.648v12c0 1.632-.144 3.28-.432 4.944-.256 1.664-.784 3.312-1.584 4.944-.8 1.632-1.968 3.216-3.504 4.752-1.536 1.504-3.568 2.928-6.096 4.272-2.496 1.376-5.616 2.624-9.36 3.744-.096-.256-.272-.576-.528-.96a12.53 12.53 0 00-.864-1.056c-.288-.352-.56-.656-.816-.912 3.616-.992 6.608-2.08 8.976-3.264 2.4-1.216 4.304-2.496 5.712-3.84 1.44-1.344 2.496-2.72 3.168-4.128.704-1.44 1.152-2.88 1.344-4.32.224-1.44.336-2.848.336-4.224V32.184zm47.856-1.584c1.312.192 2.832.352 4.56.48 1.76.096 3.568.144 5.424.144a136.14 136.14 0 005.376-.192c1.728-.128 3.184-.288 4.368-.48v3.888c-1.28.128-2.784.24-4.512.336a141.49 141.49 0 01-5.328.096c-1.824 0-3.6-.032-5.328-.096a111.032 111.032 0 01-4.56-.336V30.6zm1.872 19.536a32.95 32.95 0 00-.528 2.352 11.526 11.526 0 00-.192 2.064c0 .544.112 1.088.336 1.632.256.512.672.976 1.248 1.392.608.384 1.44.704 2.496.96 1.056.224 2.4.336 4.032.336 2.176 0 4.224-.096 6.144-.288 1.92-.224 3.84-.544 5.76-.96l.096 4.032c-1.504.32-3.264.576-5.28.768-1.984.16-4.224.24-6.72.24-4.032 0-6.992-.64-8.88-1.92-1.856-1.28-2.784-3.04-2.784-5.28 0-.8.064-1.648.192-2.544.16-.928.368-1.968.624-3.12l3.456.336zm-11.04-23.232c-.064.256-.16.592-.288 1.008-.096.384-.208.784-.336 1.2-.096.384-.176.72-.24 1.008-.16.896-.352 1.936-.576 3.12a142 142 0 00-.672 3.744 610.859 610.859 0 00-.576 4.032c-.16 1.344-.304 2.656-.432 3.936a47.726 47.726 0 00-.144 3.552c0 1.184.032 2.304.096 3.36.096 1.056.208 2.176.336 3.36.288-.736.592-1.52.912-2.352.32-.832.64-1.648.96-2.448.352-.832.656-1.568.912-2.208l2.016 1.536a371.18 371.18 0 00-1.344 3.792 94.954 94.954 0 00-1.296 3.984 53.371 53.371 0 00-.768 2.976c-.064.352-.128.736-.192 1.152-.064.416-.08.752-.048 1.008s.048.528.048.816c.032.32.064.608.096.864l-3.456.24c-.48-1.696-.896-3.872-1.248-6.528-.352-2.688-.528-5.648-.528-8.88 0-1.76.08-3.552.24-5.376.16-1.856.368-3.648.624-5.376.256-1.76.496-3.36.72-4.8.256-1.472.448-2.704.576-3.696.096-.576.176-1.152.24-1.728.064-.608.096-1.168.096-1.68l4.272.384zm37.2 24.96h44.256v3.36H596.92v-3.36zm1.776-26.256H639.4v3.36h-40.704v-3.36zm6.288 17.136h28.176v3.168h-28.176v-3.168zm26.832-9.072h3.552v28.752c0 1.088-.16 1.92-.48 2.496-.288.608-.832 1.056-1.632 1.344-.768.288-1.84.464-3.216.528-1.376.064-3.104.096-5.184.096-.096-.48-.272-1.056-.528-1.728a10.952 10.952 0 00-.816-1.728c1.088.032 2.112.048 3.072.048.992.032 1.84.032 2.544 0h1.488c.448-.032.752-.128.912-.288.192-.128.288-.4.288-.816V33.672zm-29.232 0h30.672v3.312h-27.12v29.952h-3.552V33.672zm14.4-7.008h3.648v26.448h-3.648V26.664zm28.368-1.536h16.512v3.36h-16.512v-3.36zm.576 13.632h15.504v3.312h-15.504V38.76zm-1.44 17.088c1.472-.384 3.168-.832 5.088-1.344 1.92-.512 3.952-1.072 6.096-1.68 2.176-.608 4.336-1.216 6.48-1.824l.48 3.216c-3.008.896-6.048 1.792-9.12 2.688-3.04.896-5.744 1.696-8.112 2.4l-.912-3.456zm22.992-20.304v4.848h15.696v-4.848H667.48zm0 7.728v4.896h15.696v-4.896H667.48zm0-15.456v4.8h15.696v-4.8H667.48zm-3.36-3.024h22.56V51.24h-22.56V24.792zm12.576 24.96h3.456v12.24c0 .576.08.944.24 1.104.16.192.528.288 1.104.288h3.792c.352 0 .624-.128.816-.384.192-.256.32-.784.384-1.584.096-.832.16-2.064.192-3.696.256.16.56.336.912.528.384.192.768.352 1.152.48.384.128.736.24 1.056.336-.096 1.952-.288 3.472-.576 4.56-.288 1.088-.72 1.84-1.296 2.256-.544.416-1.296.624-2.256.624h-4.704c-1.152 0-2.048-.128-2.688-.384-.608-.256-1.024-.72-1.248-1.392-.224-.672-.336-1.584-.336-2.736v-12.24zm-8.208.72h3.552c-.224 2.048-.576 3.936-1.056 5.664a15.239 15.239 0 01-2.16 4.608c-.96 1.376-2.24 2.592-3.84 3.648-1.568 1.088-3.568 2-6 2.736a10.588 10.588 0 00-.528-1.008 17.58 17.58 0 00-.768-1.104 3.815 3.815 0 00-.768-.816c2.208-.608 4.016-1.344 5.424-2.208 1.44-.896 2.576-1.92 3.408-3.072a11.805 11.805 0 001.824-3.84c.416-1.408.72-2.944.912-4.608zm-16.464-24h3.504v28.272l-3.504.624V26.472zm55.296-.864c-.128.8-.224 1.616-.288 2.448-.064.8-.112 1.6-.144 2.4a335.095 335.095 0 00-.192 4.992 1725.77 1725.77 0 00-.192 6.336 457.386 457.386 0 00-.192 12.576c0 1.76.336 3.168 1.008 4.224a5.535 5.535 0 002.784 2.256c1.184.448 2.544.672 4.08.672 2.176 0 4.144-.272 5.904-.816 1.76-.576 3.328-1.328 4.704-2.256a20.833 20.833 0 003.648-3.216 33.997 33.997 0 002.928-3.648l2.736 3.264c-.832 1.152-1.856 2.352-3.072 3.6-1.184 1.216-2.592 2.352-4.224 3.408-1.632 1.056-3.52 1.92-5.664 2.592-2.112.672-4.48 1.008-7.104 1.008-2.272 0-4.288-.352-6.048-1.056-1.76-.704-3.136-1.84-4.128-3.408-.992-1.568-1.488-3.648-1.488-6.24 0-1.44.016-3.024.048-4.752.032-1.76.08-3.568.144-5.424.064-1.856.112-3.664.144-5.424.032-1.792.064-3.44.096-4.944s.048-2.752.048-3.744c0-.896-.032-1.76-.096-2.592a22.62 22.62 0 00-.288-2.304l4.848.048zm44.784 40.08a60.067 60.067 0 00-3.36-3.84 100.631 100.631 0 00-3.696-3.696 50.832 50.832 0 00-3.552-3.168l3.12-2.736c1.152.928 2.368 2 3.648 3.216a103.266 103.266 0 013.744 3.744 66.549 66.549 0 013.36 3.696l-3.264 2.784z" fill="#fff"/></svg>