<svg width="1073" height="88" fill="none" xmlns="http://www.w3.org/2000/svg"><path fill="#555" fill-opacity=".4" d="M0 0h1073v88H0z"/><path d="M22.336 50.616h23.568V47.4H22.336v3.216zm0-5.616h23.568v-3.216H22.336V45zm27.12-5.664v13.776H18.928V39.336h30.528zM45.52 29.208a61.165 61.165 0 01-1.584 2.88 35.863 35.863 0 01-1.488 2.4l-3.168-.816c.416-.768.864-1.648 1.344-2.64.512-1.024.912-1.92 1.2-2.688l3.696.864zm-19.344-.816c.48.832.928 1.728 1.344 2.688.448.96.768 1.792.96 2.496l-3.456.912c-.16-.736-.432-1.6-.816-2.592a16.734 16.734 0 00-1.296-2.736l3.264-.768zm9.552-5.712v5.232h-3.6V22.68h3.6zm19.056 11.28v2.928h-41.28V33.96h41.28zm-2.496-8.112v2.976H15.664v-2.976h36.624zM21.856 56.616a25.979 25.979 0 01-2.688 5.088c-1.088 1.632-2.528 2.976-4.32 4.032l-2.832-1.92a13.62 13.62 0 004.224-3.648c1.152-1.536 2.016-3.088 2.592-4.656l3.024 1.104zm25.68-1.536c1.056.8 2.144 1.696 3.264 2.688 1.12.992 2.144 2 3.072 3.024.96.992 1.712 1.92 2.256 2.784l-2.976 1.872c-.512-.864-1.232-1.808-2.16-2.832a44.22 44.22 0 00-2.976-3.072 25.995 25.995 0 00-3.264-2.784l2.784-1.68zM31.36 53.064c.928.448 1.888.976 2.88 1.584a33.22 33.22 0 012.832 1.776c.896.576 1.632 1.12 2.208 1.632l-2.112 2.16c-.544-.512-1.264-1.072-2.16-1.68a38.294 38.294 0 00-2.784-1.872 61.847 61.847 0 00-2.832-1.728l1.968-1.872zm-3.552 8.976c0 .576.176.944.528 1.104.352.16 1.152.24 2.4.24h8.496c.672 0 1.168-.112 1.488-.336.352-.192.592-.64.72-1.344.16-.704.272-1.76.336-3.168a8.66 8.66 0 001.536.72 11.09 11.09 0 001.632.48c-.128 1.824-.368 3.2-.72 4.128-.352.96-.896 1.616-1.632 1.968-.736.384-1.76.576-3.072.576h-9.072c-1.632 0-2.896-.128-3.792-.384-.864-.224-1.472-.656-1.824-1.296-.352-.64-.528-1.536-.528-2.688v-6.192h3.504v6.192zM91.552 31.8l3.36.96c-2.592 6.208-6.016 11.552-10.272 16.032-4.224 4.48-9.12 8.112-14.688 10.896a9.193 9.193 0 00-.672-.912 15.18 15.18 0 00-.912-1.104 10.93 10.93 0 00-.864-.864c5.536-2.496 10.336-5.856 14.4-10.08 4.096-4.224 7.312-9.2 9.648-14.928zm-22.32 12.48l1.968-2.4c2.112.864 4.304 1.84 6.576 2.928 2.272 1.088 4.48 2.24 6.624 3.456a86.219 86.219 0 016.048 3.696c1.856 1.216 3.408 2.384 4.656 3.504l-2.16 2.88c-1.216-1.152-2.736-2.352-4.56-3.6a83.433 83.433 0 00-5.952-3.792 93.966 93.966 0 00-6.624-3.6 91.79 91.79 0 00-6.576-3.072zM68.8 33l2.688-1.2a36.34 36.34 0 012.736 4.272c.896 1.536 1.504 2.88 1.824 4.032l-2.88 1.344c-.32-1.152-.896-2.512-1.728-4.08A37.58 37.58 0 0068.8 33zm9.168-1.68l2.832-1.008c.832 1.408 1.6 2.96 2.304 4.656.704 1.664 1.168 3.104 1.392 4.32l-3.072 1.104c-.096-.8-.336-1.712-.72-2.736a36.823 36.823 0 00-1.248-3.216 25.625 25.625 0 00-1.488-3.12zm-15.744-6.384h39.696v41.76h-3.696V28.392h-32.4v38.304h-3.6v-41.76zm2.064 35.952H99.76v3.504H64.288v-3.504zm58.032-35.28c-.128.8-.224 1.616-.288 2.448-.064.8-.112 1.6-.144 2.4a335.095 335.095 0 00-.192 4.992 1725.77 1725.77 0 00-.192 6.336 457.386 457.386 0 00-.192 12.576c0 1.76.336 3.168 1.008 4.224a5.535 5.535 0 002.784 2.256c1.184.448 2.544.672 4.08.672 2.176 0 4.144-.272 5.904-.816 1.76-.576 3.328-1.328 4.704-2.256a20.833 20.833 0 003.648-3.216 33.997 33.997 0 002.928-3.648l2.736 3.264c-.832 1.152-1.856 2.352-3.072 3.6-1.184 1.216-2.592 2.352-4.224 3.408-1.632 1.056-3.52 1.92-5.664 2.592-2.112.672-4.48 1.008-7.104 1.008-2.272 0-4.288-.352-6.048-1.056-1.76-.704-3.136-1.84-4.128-3.408-.992-1.568-1.488-3.648-1.488-6.24 0-1.44.016-3.024.048-4.752.032-1.76.08-3.568.144-5.424.064-1.856.112-3.664.144-5.424.032-1.792.064-3.44.096-4.944s.048-2.752.048-3.744c0-.896-.032-1.76-.096-2.592a22.62 22.62 0 00-.288-2.304l4.848.048zm52.944-.384c-.16.544-.32 1.2-.48 1.968-.16.768-.288 1.392-.384 1.872a313.112 313.112 0 01-.816 4.032 129.48 129.48 0 01-1.008 4.752 78.102 78.102 0 01-1.2 4.896 110.995 110.995 0 01-1.536 5.568 258.364 258.364 0 01-1.92 6c-.672 2.016-1.36 3.92-2.064 5.712a102.32 102.32 0 01-1.968 4.704l-4.224-1.44c.736-1.248 1.472-2.736 2.208-4.464a85.75 85.75 0 002.208-5.616 117.113 117.113 0 002.016-5.904 117.21 117.21 0 001.632-5.472c.32-1.12.624-2.304.912-3.552.288-1.248.56-2.464.816-3.648.256-1.216.464-2.32.624-3.312.192-1.024.336-1.856.432-2.496.096-.672.16-1.376.192-2.112.032-.736.016-1.36-.048-1.872l4.608.384zm-10.656 8.016c1.792 0 3.712-.08 5.76-.24a90.4 90.4 0 006.336-.816 70.46 70.46 0 006.192-1.296v3.792a83.502 83.502 0 01-6.24 1.152c-2.176.32-4.32.576-6.432.768-2.08.16-3.968.24-5.664.24a82.44 82.44 0 01-2.928-.048 77.13 77.13 0 00-2.64-.144l-.144-3.744a79.37 79.37 0 003.072.288 78.07 78.07 0 002.688.048zm15.168 6.624a73.591 73.591 0 014.176-.288 73.854 73.854 0 014.608-.144c1.408 0 2.816.032 4.224.096 1.44.064 2.8.176 4.08.336l-.096 3.648a64.027 64.027 0 00-3.888-.384 45.064 45.064 0 00-4.176-.192c-1.504 0-3.008.048-4.512.144a68.319 68.319 0 00-4.416.336v-3.552zm1.008 11.664c-.192.768-.352 1.52-.48 2.256a12.085 12.085 0 00-.192 2.064c0 .576.096 1.136.288 1.68.224.512.624.976 1.2 1.392.576.416 1.392.752 2.448 1.008 1.088.256 2.48.384 4.176.384 1.568 0 3.152-.08 4.752-.24 1.6-.16 3.136-.4 4.608-.72l-.144 3.888c-1.28.192-2.704.352-4.272.48a61.47 61.47 0 01-4.992.192c-3.776 0-6.672-.576-8.688-1.728-2.016-1.184-3.024-2.96-3.024-5.328 0-.928.064-1.856.192-2.784.16-.928.336-1.888.528-2.88l3.6.336zm33.648-9.888v16.992h-3.456V45h-6.96v-3.36h10.416zm0 15.504c1.152 1.792 2.752 3.12 4.8 3.984 2.048.832 4.48 1.312 7.296 1.44 1.344.032 2.96.064 4.848.096h6.048a346.37 346.37 0 006.096-.144c1.984-.064 3.712-.144 5.184-.24a11.79 11.79 0 00-.432 1.008c-.16.416-.32.848-.48 1.296-.128.448-.224.864-.288 1.248-1.344.032-2.928.064-4.752.096-1.792.064-3.696.096-5.712.096-1.984.032-3.904.032-5.76 0a772.262 772.262 0 01-4.752-.096c-3.104-.128-5.776-.64-8.016-1.536s-4.112-2.304-5.616-4.224a120.784 120.784 0 01-3.744 3.12 144.533 144.533 0 01-3.984 3.168l-1.776-3.552a123.47 123.47 0 003.888-2.64 83.601 83.601 0 004.032-3.12h3.12zm-9.648-31.152l2.544-2.208a33.5 33.5 0 013.12 2.448 35.499 35.499 0 012.976 2.736c.896.896 1.6 1.76 2.112 2.592l-2.736 2.496c-.48-.832-1.168-1.712-2.064-2.64a39.397 39.397 0 00-2.832-2.832 32.64 32.64 0 00-3.12-2.592zm19.248 4.752l2.256-2.064a75.729 75.729 0 014.848 1.92 103.89 103.89 0 014.944 2.16c1.6.736 2.928 1.424 3.984 2.064l-2.4 2.304c-.992-.64-2.272-1.344-3.84-2.112a88.51 88.51 0 00-4.896-2.256 89.39 89.39 0 00-4.896-2.016zm-4.608 3.984h24.816v2.784h-21.408v22.08h-3.408V34.728zm23.136 0h3.456v21.264c0 .896-.112 1.584-.336 2.064-.224.448-.656.816-1.296 1.104-.64.256-1.488.416-2.544.48-1.024.032-2.352.048-3.984.048a7.865 7.865 0 00-.384-1.488 7.74 7.74 0 00-.624-1.44c1.152.032 2.176.048 3.072.048h1.824c.32-.032.528-.112.624-.24.128-.128.192-.32.192-.576V34.728zm-23.088-10.08h23.952v2.88h-23.952v-2.88zm1.824 17.088h22.608v2.688h-22.608v-2.688zm0 7.056h22.608v2.832h-22.608v-2.832zm9.648-12.912h3.264V59.4h-3.264V35.88zm11.28-11.232h.816l.72-.192 2.256 1.776a41.536 41.536 0 01-3.696 2.976 48.977 48.977 0 01-4.32 2.688 43.694 43.694 0 01-4.464 2.16c-.224-.32-.528-.688-.912-1.104a14.84 14.84 0 00-1.008-1.008 38.374 38.374 0 004.032-1.92 41.534 41.534 0 003.744-2.304c1.152-.832 2.096-1.632 2.832-2.4v-.672zm24.048.48a49.793 49.793 0 00-.768 3.12 197.666 197.666 0 00-.672 3.648 248.79 248.79 0 00-.528 3.6 90.037 90.037 0 00-.288 2.976c.512-1.216 1.184-2.464 2.016-3.744a18.187 18.187 0 012.976-3.504 15.606 15.606 0 013.744-2.64 9.725 9.725 0 014.32-1.008c2.144 0 4.032.672 5.664 2.016 1.664 1.344 2.96 3.248 3.888 5.712.928 2.464 1.392 5.376 1.392 8.736 0 3.328-.496 6.224-1.488 8.688-.992 2.432-2.384 4.496-4.176 6.192-1.792 1.696-3.936 3.072-6.432 4.128-2.464 1.056-5.184 1.84-8.16 2.352l-2.256-3.456c2.592-.384 5.008-.96 7.248-1.728 2.272-.8 4.256-1.872 5.952-3.216 1.696-1.376 3.008-3.12 3.936-5.232.96-2.112 1.44-4.672 1.44-7.68 0-2.528-.288-4.768-.864-6.72-.576-1.984-1.424-3.536-2.544-4.656-1.12-1.12-2.528-1.68-4.224-1.68-1.504 0-2.944.48-4.32 1.44-1.376.96-2.64 2.208-3.792 3.744a21.577 21.577 0 00-2.736 4.896c-.704 1.728-1.136 3.376-1.296 4.944a20.01 20.01 0 00-.192 2.736c.032.896.128 1.952.288 3.168l-3.696.288c-.128-.896-.256-2-.384-3.312a59.515 59.515 0 01-.144-4.32c0-1.12.048-2.368.144-3.744l.384-4.224c.16-1.44.32-2.816.48-4.128.192-1.312.352-2.448.48-3.408a49.746 49.746 0 00.384-4.128l4.224.144zm58.8 5.088c-.32 2.496-.736 5.104-1.248 7.824a69.68 69.68 0 01-1.872 7.92c-.96 3.296-2.032 6.048-3.216 8.256-1.152 2.208-2.4 3.872-3.744 4.992-1.344 1.12-2.752 1.68-4.224 1.68-1.408 0-2.768-.512-4.08-1.536-1.312-1.024-2.384-2.496-3.216-4.416-.832-1.952-1.248-4.24-1.248-6.864 0-2.624.528-5.104 1.584-7.44a20.265 20.265 0 014.464-6.192c1.92-1.824 4.16-3.264 6.72-4.32 2.56-1.056 5.296-1.584 8.208-1.584 2.816 0 5.344.464 7.584 1.392 2.272.928 4.208 2.208 5.808 3.84 1.6 1.6 2.832 3.472 3.696 5.616.864 2.112 1.296 4.384 1.296 6.816 0 3.36-.72 6.32-2.16 8.88-1.408 2.56-3.456 4.64-6.144 6.24-2.656 1.6-5.888 2.656-9.696 3.168l-2.256-3.552c.768-.096 1.504-.192 2.208-.288a23.593 23.593 0 001.92-.336 19.204 19.204 0 004.464-1.632 15.987 15.987 0 003.936-2.88c1.152-1.184 2.064-2.576 2.736-4.176.704-1.632 1.056-3.488 1.056-5.568 0-1.952-.32-3.76-.96-5.424a12.791 12.791 0 00-2.832-4.464c-1.248-1.28-2.768-2.288-4.56-3.024-1.792-.736-3.84-1.104-6.144-1.104-2.624 0-5.008.48-7.152 1.44-2.112.96-3.92 2.224-5.424 3.792-1.472 1.536-2.608 3.232-3.408 5.088-.8 1.824-1.2 3.616-1.2 5.376 0 2.016.256 3.68.768 4.992.544 1.28 1.184 2.224 1.92 2.832.768.608 1.52.912 2.256.912.768 0 1.552-.368 2.352-1.104.8-.768 1.616-1.984 2.448-3.648.832-1.696 1.648-3.888 2.448-6.576a66.692 66.692 0 001.776-7.344c.512-2.592.88-5.136 1.104-7.632l4.032.048zm25.632-.816h38.64v3.216h-38.64V29.4zm2.352 7.152h34.128v3.12h-34.128v-3.12zm-4.272 7.152h42.432v3.264h-42.432v-3.264zm-.384 7.728h43.344v3.216H348.4v-3.216zm19.68-20.208h3.648v14.832h-3.648V31.224zm-11.28-7.296l3.168-1.344c.864.896 1.68 1.904 2.448 3.024.8 1.12 1.376 2.144 1.728 3.072l-3.36 1.488c-.288-.896-.8-1.936-1.536-3.12a17.311 17.311 0 00-2.448-3.12zm22.56-1.344l3.744 1.152a58.777 58.777 0 01-2.448 3.312 33.138 33.138 0 01-2.352 2.784l-3.12-1.056c.48-.576.976-1.216 1.488-1.92a89.055 89.055 0 001.488-2.208c.48-.768.88-1.456 1.2-2.064zm-11.52 23.808h3.792c-.256 2.24-.64 4.304-1.152 6.192-.512 1.856-1.248 3.536-2.208 5.04-.928 1.504-2.192 2.848-3.792 4.032-1.6 1.184-3.616 2.192-6.048 3.024-2.432.864-5.376 1.584-8.832 2.16-.064-.32-.208-.672-.432-1.056a15.674 15.674 0 00-.672-1.2 4.694 4.694 0 00-.72-.96c3.232-.48 5.968-1.072 8.208-1.776 2.272-.704 4.128-1.552 5.568-2.544 1.472-.992 2.624-2.112 3.456-3.36a14.691 14.691 0 001.872-4.272c.416-1.6.736-3.36.96-5.28zm4.848 6c1.376 3.424 3.696 6.032 6.96 7.824 3.264 1.76 7.52 2.88 12.768 3.36a9.009 9.009 0 00-.816.96c-.288.416-.56.832-.816 1.248-.224.416-.416.784-.576 1.104-3.648-.48-6.848-1.28-9.6-2.4-2.72-1.088-5.008-2.56-6.864-4.416-1.824-1.888-3.28-4.24-4.368-7.056l3.312-.624zm37.632-26.784c-.128.8-.224 1.616-.288 2.448-.064.8-.112 1.6-.144 2.4a335.095 335.095 0 00-.192 4.992 1725.77 1725.77 0 00-.192 6.336 457.386 457.386 0 00-.192 12.576c0 1.76.336 3.168 1.008 4.224a5.535 5.535 0 002.784 2.256c1.184.448 2.544.672 4.08.672 2.176 0 4.144-.272 5.904-.816 1.76-.576 3.328-1.328 4.704-2.256a20.833 20.833 0 003.648-3.216 33.997 33.997 0 002.928-3.648l2.736 3.264c-.832 1.152-1.856 2.352-3.072 3.6-1.184 1.216-2.592 2.352-4.224 3.408-1.632 1.056-3.52 1.92-5.664 2.592-2.112.672-4.48 1.008-7.104 1.008-2.272 0-4.288-.352-6.048-1.056-1.76-.704-3.136-1.84-4.128-3.408-.992-1.568-1.488-3.648-1.488-6.24 0-1.44.016-3.024.048-4.752.032-1.76.08-3.568.144-5.424.064-1.856.112-3.664.144-5.424.032-1.792.064-3.44.096-4.944s.048-2.752.048-3.744c0-.896-.032-1.76-.096-2.592a22.62 22.62 0 00-.288-2.304l4.848.048zm42.384 3.888a27.46 27.46 0 00-.192 1.44c-.032.576-.08 1.152-.144 1.728a27.366 27.366 0 00-.048 1.488c-.032.992-.048 2.128-.048 3.408.032 1.248.064 2.56.096 3.936.064 1.344.16 2.688.288 4.032.256 2.656.688 4.992 1.296 7.008.608 1.984 1.344 3.536 2.208 4.656.896 1.12 1.904 1.68 3.024 1.68.608 0 1.2-.272 1.776-.816.576-.576 1.12-1.328 1.632-2.256a20.62 20.62 0 001.44-3.168 30.21 30.21 0 001.104-3.552l3.024 3.408c-.96 2.72-1.936 4.88-2.928 6.48-.96 1.568-1.952 2.704-2.976 3.408-.992.704-2.032 1.056-3.12 1.056-1.504 0-2.96-.544-4.368-1.632-1.408-1.12-2.624-2.912-3.648-5.376-1.024-2.496-1.76-5.808-2.208-9.936a84.445 84.445 0 01-.384-4.56 267.333 267.333 0 01-.144-4.656v-3.6c0-.544-.016-1.248-.048-2.112-.032-.864-.128-1.584-.288-2.16l4.656.096zm25.008 1.344c.864 1.088 1.68 2.368 2.448 3.84a36.71 36.71 0 012.16 4.656 50.127 50.127 0 011.776 5.088 45.33 45.33 0 011.296 5.28c.352 1.728.608 3.392.768 4.992l-3.84 1.584a54.442 54.442 0 00-1.008-6.624 59.995 59.995 0 00-1.776-6.576 46.77 46.77 0 00-2.448-6.048c-.928-1.888-1.968-3.52-3.12-4.896l3.744-1.296zM498.688 63l-7.44-35.184h4.56l3.696 19.152c.352 1.888.704 3.792 1.056 5.712.352 1.888.704 3.792 1.056 5.712h.192c.416-1.92.832-3.824 1.248-5.712.416-1.92.832-3.824 1.248-5.712l4.848-19.152h4.08l4.896 19.152c.416 1.888.832 3.792 1.248 5.712a473.98 473.98 0 001.296 5.712h.24c.32-1.92.64-3.824.96-5.712.32-1.92.64-3.824.96-5.712l3.792-19.152h4.224L523.6 63h-5.376l-5.328-21.216c-.32-1.408-.624-2.752-.912-4.032-.256-1.312-.528-2.64-.816-3.984h-.192a79.916 79.916 0 01-.864 3.984 95.782 95.782 0 00-.912 4.032L503.968 63h-5.28zm48.429.624c-2.336 0-4.448-.544-6.336-1.632-1.888-1.088-3.392-2.64-4.512-4.656-1.088-2.048-1.632-4.496-1.632-7.344 0-2.144.32-4.048.96-5.712.64-1.696 1.504-3.136 2.592-4.32 1.12-1.216 2.384-2.128 3.792-2.736 1.408-.64 2.848-.96 4.32-.96 2.24 0 4.128.496 5.664 1.488 1.536.992 2.704 2.416 3.504 4.272.832 1.824 1.248 3.984 1.248 6.48 0 .48-.016.928-.048 1.344-.032.416-.08.8-.144 1.152h-17.568c.096 1.856.512 3.472 1.248 4.848.768 1.344 1.776 2.4 3.024 3.168 1.248.736 2.704 1.104 4.368 1.104 1.28 0 2.432-.176 3.456-.528a15.31 15.31 0 003.072-1.536l1.536 2.928c-1.12.736-2.384 1.36-3.792 1.872s-2.992.768-4.752.768zm-8.208-15.744h13.968c0-2.624-.576-4.624-1.728-6-1.12-1.408-2.704-2.112-4.752-2.112-1.216 0-2.368.32-3.456.96-1.056.64-1.952 1.552-2.688 2.736-.704 1.184-1.152 2.656-1.344 4.416zm35.698 15.744c-1.184 0-2.432-.288-3.744-.864-1.312-.576-2.528-1.392-3.648-2.448h-.192L566.639 63h-3.504V24.792h4.416v10.464l-.192 4.656a18.711 18.711 0 013.888-2.592c1.408-.704 2.848-1.056 4.32-1.056 2.24 0 4.128.56 5.664 1.68 1.536 1.088 2.704 2.624 3.504 4.608.8 1.984 1.2 4.32 1.2 7.008 0 2.944-.544 5.472-1.632 7.584-1.056 2.112-2.448 3.728-4.176 4.848-1.696 1.088-3.536 1.632-5.52 1.632zm-.72-3.696c1.44 0 2.72-.4 3.84-1.2 1.152-.832 2.048-2.016 2.688-3.552.64-1.568.96-3.424.96-5.568 0-1.92-.24-3.6-.72-5.04-.448-1.472-1.168-2.608-2.16-3.408-.992-.8-2.336-1.2-4.032-1.2-1.088 0-2.208.304-3.36.912-1.152.608-2.336 1.488-3.552 2.64V57.24c1.12.992 2.24 1.696 3.36 2.112 1.152.384 2.144.576 2.976.576zm49.064-18.96c0 3.2-.208 6.032-.624 8.496-.384 2.464-1.088 4.656-2.112 6.576s-2.432 3.632-4.224 5.136c-1.76 1.472-4.016 2.816-6.768 4.032l-3.216-3.024c2.208-.864 4.128-1.808 5.76-2.832a14.172 14.172 0 004.08-3.84c1.088-1.536 1.904-3.456 2.448-5.76s.816-5.136.816-8.496V29.592c0-.96-.032-1.792-.096-2.496a33.966 33.966 0 00-.144-1.44h4.32c-.032.224-.08.704-.144 1.44a28.035 28.035 0 00-.096 2.496v11.376zm-17.28-15.024c-.032.224-.08.656-.144 1.296-.064.64-.096 1.376-.096 2.208v17.568c0 .576.016 1.184.048 1.824.032.608.064 1.152.096 1.632.032.448.048.752.048.912h-4.224c0-.16.016-.464.048-.912s.064-.976.096-1.584c.032-.64.048-1.264.048-1.872V29.448c0-.544-.016-1.12-.048-1.728-.032-.64-.08-1.232-.144-1.776h4.272zm-14.064 9.312c.16.032.48.08.96.144.512.032 1.12.08 1.824.144a44.47 44.47 0 002.016.048h31.824c1.056 0 1.968-.032 2.736-.096.768-.064 1.328-.112 1.68-.144v4.08a28.008 28.008 0 00-1.632-.096c-.8-.032-1.728-.048-2.784-.048h-31.824c-.672 0-1.344.016-2.016.048-.672 0-1.264.016-1.776.048-.48.032-.816.048-1.008.048v-4.176zm48.912 10.416c4.16-1.12 8.032-2.48 11.616-4.08 3.584-1.6 6.704-3.232 9.36-4.896a62.935 62.935 0 004.848-3.408 59.735 59.735 0 004.512-3.888 47.145 47.145 0 003.744-3.984l3.216 2.976a61.036 61.036 0 01-4.368 4.224 69.831 69.831 0 01-4.992 3.984 100.032 100.032 0 01-5.424 3.648 96.242 96.242 0 01-5.952 3.264 84.961 84.961 0 01-7.056 3.168 125.843 125.843 0 01-7.584 2.736l-1.92-3.744zm20.208-6.96l4.128-1.248v23.808c.032.672.064 1.296.096 1.872.064.576.128 1.024.192 1.344h-4.704c.032-.32.064-.768.096-1.344.064-.576.112-1.2.144-1.872.032-.672.048-1.312.048-1.92v-20.64zm39.84 20.064V30.84c0-.672-.032-1.488-.096-2.448s-.16-1.808-.288-2.544h4.704a283.43 283.43 0 01-.24 2.496c-.064.96-.096 1.792-.096 2.496v15.936c.032 1.92.048 3.728.048 5.424v8.352c.032.672.08 1.36.144 2.064.064.672.112 1.28.144 1.824h-4.656c.128-.768.208-1.68.24-2.736.064-1.056.096-2.032.096-2.928zm3.168-20.352c1.568.48 3.296 1.056 5.184 1.728 1.92.64 3.872 1.328 5.856 2.064s3.856 1.488 5.616 2.256c1.792.736 3.344 1.44 4.656 2.112l-1.632 4.08a48.889 48.889 0 00-4.656-2.256 166.801 166.801 0 00-5.328-2.256 89.81 89.81 0 00-5.232-1.968 72.65 72.65 0 00-4.464-1.488v-4.272zm50.736-13.392c-.192.96-.448 2.096-.768 3.408-.288 1.28-.768 2.736-1.44 4.368a37.704 37.704 0 01-2.16 4.464 31.228 31.228 0 01-2.688 4.176 9.437 9.437 0 012.064-.96 12.15 12.15 0 012.352-.624 14.967 14.967 0 012.256-.192c1.856 0 3.424.528 4.704 1.584 1.28 1.024 1.92 2.528 1.92 4.512v5.328l.096 3.024c.032.992.048 1.856.048 2.592h-3.696c.032-.64.064-1.392.096-2.256.032-.864.048-1.776.048-2.736.032-.96.032-1.872 0-2.736v-2.208c0-1.408-.432-2.432-1.296-3.072-.832-.672-1.888-1.008-3.168-1.008-1.504 0-2.992.336-4.464 1.008a13.452 13.452 0 00-3.792 2.496 25.094 25.094 0 00-2.112 2.304 101.76 101.76 0 01-2.256 2.688l-3.264-2.4c2.304-2.24 4.224-4.336 5.76-6.288 1.536-1.952 2.784-3.76 3.744-5.424.96-1.696 1.712-3.216 2.256-4.56a32.407 32.407 0 001.248-4.032c.32-1.376.512-2.64.576-3.792l3.936.336zm-16.416 5.184c1.28.16 2.672.288 4.176.384 1.504.096 2.816.144 3.936.144 2.144 0 4.448-.048 6.912-.144a198.36 198.36 0 007.44-.528 78.46 78.46 0 007.2-.96l-.048 3.552c-1.664.288-3.44.528-5.328.72-1.888.16-3.808.304-5.76.432-1.952.096-3.84.176-5.664.24-1.792.032-3.456.048-4.992.048h-2.352c-.864-.032-1.776-.064-2.736-.096-.96-.064-1.888-.128-2.784-.192v-3.6zm36.672 11.616c-.416.096-.88.24-1.392.432-.48.16-.976.336-1.488.528-.48.192-.944.384-1.392.576-1.664.64-3.6 1.424-5.808 2.352-2.208.928-4.464 2-6.768 3.216-1.6.8-3.008 1.648-4.224 2.544-1.216.864-2.176 1.776-2.88 2.736-.704.928-1.056 1.952-1.056 3.072 0 .928.208 1.68.624 2.256.448.576 1.072 1.024 1.872 1.344.8.288 1.712.48 2.736.576 1.056.096 2.208.144 3.456.144 1.856 0 3.968-.096 6.336-.288a94.89 94.89 0 006.768-.864l-.096 3.84a87.89 87.89 0 01-4.128.432 104.7 104.7 0 01-4.608.288 70.885 70.885 0 01-4.416.144c-2.272 0-4.352-.208-6.24-.624-1.856-.416-3.344-1.152-4.464-2.208-1.12-1.056-1.68-2.56-1.68-4.512 0-1.44.336-2.752 1.008-3.936.672-1.216 1.568-2.32 2.688-3.312a27.987 27.987 0 013.792-2.736 45.615 45.615 0 014.224-2.352 67.821 67.821 0 014.32-2.16 242.223 242.223 0 013.888-1.68 70.801 70.801 0 003.408-1.536c.704-.32 1.376-.624 2.016-.912a26.84 26.84 0 001.92-.96l1.584 3.6zm25.68-9.36h24.384v2.64h-24.384v-2.64zm-2.064 5.904h28.08v2.736h-28.08v-2.736zm-.864 17.76h29.52v2.832h-29.52v-2.832zm5.04-6.096h19.392v2.592h-19.392V50.04zm-3.024-23.424h25.968v2.688h-25.968v-2.688zm5.52-3.936h3.36v17.04h-3.36V22.68zm5.472 17.376h3.312v17.28h-3.312v-17.28zm5.616-17.376h3.36v16.944h-3.36V22.68zm-15.36 21.312h21.168v2.688h-17.856v20.016h-3.312V43.992zm19.824 0h3.36V63c0 .896-.128 1.584-.384 2.064-.224.48-.64.848-1.248 1.104-.672.224-1.552.368-2.64.432a66.95 66.95 0 01-3.936.096c-.064-.416-.208-.912-.432-1.488a9.476 9.476 0 00-.624-1.488c1.152.032 2.208.048 3.168.048.96.032 1.584.032 1.872 0 .576-.032.864-.288.864-.768V43.992zm-37.68-10.896h15.6v3.36h-15.6v-3.36zm6.72-10.416h3.312v44.112h-3.312V22.68zm-.096 12.432l2.256.72a79.858 79.858 0 01-1.44 5.952 77.816 77.816 0 01-1.872 6.048 59.906 59.906 0 01-2.256 5.52c-.8 1.696-1.632 3.152-2.496 4.368-.16-.48-.432-1.008-.816-1.584-.384-.608-.72-1.12-1.008-1.536.8-1.088 1.584-2.384 2.352-3.888a49.932 49.932 0 002.16-4.896 75.799 75.799 0 001.824-5.376 55.719 55.719 0 001.296-5.328zm3.168 4.368c.288.32.704.896 1.248 1.728.576.8 1.184 1.68 1.824 2.64.672.96 1.28 1.856 1.824 2.688.544.8.912 1.376 1.104 1.728l-1.968 2.688a43.694 43.694 0 00-1.2-2.304 67.57 67.57 0 00-1.584-2.88c-.576-.992-1.12-1.904-1.632-2.736a47.337 47.337 0 00-1.248-2.016l1.632-1.536zm38.88-4.032h16.944v2.736h-16.944v-2.736zm6.864.864h3.264v9.6h-3.264v-9.6zm-7.728 9.408c1.504-.192 3.216-.432 5.136-.72s3.968-.608 6.144-.96c2.208-.352 4.4-.688 6.576-1.008l.144 2.784c-3.136.544-6.24 1.072-9.312 1.584-3.072.48-5.808.928-8.208 1.344l-.48-3.024zm20.592-10.56h3.36v4.896c0 1.344-.224 2.704-.672 4.08-.448 1.344-1.296 2.624-2.544 3.84-1.216 1.184-2.992 2.24-5.328 3.168a9.747 9.747 0 00-.672-.816 8.698 8.698 0 00-.912-.96c-.288-.32-.56-.56-.816-.72 2.176-.768 3.792-1.632 4.848-2.592 1.088-.96 1.808-1.952 2.16-2.976.384-1.056.576-2.096.576-3.12v-4.8zm13.536 0h3.408v10.848c.032.256.096.416.192.48.192.128.448.192.768.192h1.824a1.13 1.13 0 00.432-.144c.192-.128.368-.464.528-1.008.064-.32.096-.8.096-1.44.032-.64.064-1.408.096-2.304.288.256.672.512 1.152.768.48.224.928.4 1.344.528a37.932 37.932 0 01-.192 2.688c-.064.864-.16 1.488-.288 1.872-.256.736-.72 1.248-1.392 1.536-.256.128-.592.224-1.008.288a6.996 6.996 0 01-1.152.096h-2.256c-.48 0-.96-.048-1.44-.144a2.61 2.61 0 01-1.2-.672c-.352-.288-.592-.688-.72-1.2-.128-.544-.192-1.472-.192-2.784v-9.6zm-33.84 17.088h42.912v2.976h-42.912v-2.976zm19.632-3.696h3.504v18.192h-3.504V48.552zm-1.344 5.232l2.784 1.248a28.367 28.367 0 01-3.984 3.456 43.016 43.016 0 01-4.944 2.976 54.729 54.729 0 01-5.424 2.4 42.2 42.2 0 01-5.376 1.776 31.014 31.014 0 00-1.104-1.584c-.416-.576-.816-1.04-1.2-1.392a61.148 61.148 0 005.376-1.44 52.606 52.606 0 005.328-2.064 42.135 42.135 0 004.8-2.496c1.472-.928 2.72-1.888 3.744-2.88zm6.144.144c1.056.96 2.32 1.888 3.792 2.784a41.945 41.945 0 004.8 2.4 63.456 63.456 0 005.376 1.968c1.856.544 3.68.992 5.472 1.344a10.93 10.93 0 00-.864.864 26.527 26.527 0 00-1.488 2.208 50.308 50.308 0 01-5.424-1.728 47.852 47.852 0 01-5.424-2.352 43.743 43.743 0 01-4.944-2.928c-1.536-1.056-2.864-2.176-3.984-3.36l2.688-1.2zm-19.152-27.552h15.504v2.928h-15.504v-2.928zm18.672 0h19.392v2.928h-19.392v-2.928zm-17.76-3.936l3.36.912a32.934 32.934 0 01-3.312 6.048c-1.312 1.92-2.656 3.552-4.032 4.896a9.747 9.747 0 00-.912-.672c-.352-.256-.72-.496-1.104-.72a5.417 5.417 0 00-.96-.576c1.44-1.248 2.768-2.736 3.984-4.464 1.248-1.76 2.24-3.568 2.976-5.424zm18.864 0l3.456.864a27.274 27.274 0 01-3.456 6.048c-1.44 1.92-2.928 3.52-4.464 4.8a6.312 6.312 0 00-.912-.624l-1.152-.672a8.095 8.095 0 00-1.056-.528c1.6-1.184 3.072-2.64 4.416-4.368 1.376-1.76 2.432-3.6 3.168-5.52zm-17.136 6.24l2.88-.768a30.882 30.882 0 011.584 2.736c.512.992.896 1.856 1.152 2.592l-3.024.864c-.192-.704-.544-1.568-1.056-2.592a26.112 26.112 0 00-1.536-2.832zm20.4 0l2.928-.912a21.65 21.65 0 012.208 2.736c.736.992 1.28 1.888 1.632 2.688l-3.072 1.008c-.32-.768-.832-1.664-1.536-2.688-.704-1.056-1.424-2-2.16-2.832zm-4.08 13.008l2.064-1.92c.8.448 1.632.976 2.496 1.584a38.967 38.967 0 012.4 1.728c.768.576 1.376 1.12 1.824 1.632l-2.16 2.16c-.704-.768-1.696-1.632-2.976-2.592a38.886 38.886 0 00-3.648-2.592zm-2.592-6.528h13.968v2.592h-13.968V35.16zm40.08-9.552c-.128.8-.224 1.616-.288 2.448-.064.8-.112 1.6-.144 2.4a335.095 335.095 0 00-.192 4.992 1725.77 1725.77 0 00-.192 6.336 457.386 457.386 0 00-.192 12.576c0 1.76.336 3.168 1.008 4.224a5.535 5.535 0 002.784 2.256c1.184.448 2.544.672 4.08.672 2.176 0 4.144-.272 5.904-.816 1.76-.576 3.328-1.328 4.704-2.256a20.833 20.833 0 003.648-3.216 33.997 33.997 0 002.928-3.648l2.736 3.264c-.832 1.152-1.856 2.352-3.072 3.6-1.184 1.216-2.592 2.352-4.224 3.408-1.632 1.056-3.52 1.92-5.664 2.592-2.112.672-4.48 1.008-7.104 1.008-2.272 0-4.288-.352-6.048-1.056-1.76-.704-3.136-1.84-4.128-3.408-.992-1.568-1.488-3.648-1.488-6.24 0-1.44.016-3.024.048-4.752.032-1.76.08-3.568.144-5.424.064-1.856.112-3.664.144-5.424.032-1.792.064-3.44.096-4.944s.048-2.752.048-3.744c0-.896-.032-1.76-.096-2.592a22.62 22.62 0 00-.288-2.304l4.848.048zm59.184-.72c-.064.416-.128.88-.192 1.392-.032.512-.064 1.12-.096 1.824 0 .48-.016 1.2-.048 2.16v10.224c0 1.6.032 3.28.096 5.04.064 1.76.144 3.472.24 5.136.096 1.664.176 3.184.24 4.56a74.24 74.24 0 01.096 3.264c0 1.12-.272 2.192-.816 3.216-.512 1.024-1.392 1.856-2.64 2.496-1.216.672-2.88 1.008-4.992 1.008-3.456 0-6.096-.608-7.92-1.824-1.824-1.184-2.736-2.928-2.736-5.232 0-1.472.432-2.752 1.296-3.84.896-1.088 2.176-1.936 3.84-2.544 1.664-.64 3.648-.96 5.952-.96 2.528 0 4.896.304 7.104.912 2.24.576 4.288 1.312 6.144 2.208 1.856.896 3.504 1.84 4.944 2.832 1.44.96 2.624 1.824 3.552 2.592l-2.208 3.408c-1.088-1.024-2.352-2.048-3.792-3.072a34.606 34.606 0 00-4.656-2.832 26.095 26.095 0 00-5.424-2.064c-1.92-.544-3.968-.816-6.144-.816-2.304 0-4.064.384-5.28 1.152-1.184.768-1.776 1.712-1.776 2.832 0 .704.224 1.36.672 1.968.448.576 1.168 1.04 2.16 1.392.992.352 2.272.528 3.84.528.928 0 1.776-.112 2.544-.336.768-.256 1.376-.688 1.824-1.296.48-.608.72-1.456.72-2.544 0-.928-.032-2.128-.096-3.6-.032-1.504-.08-3.088-.144-4.752-.064-1.696-.128-3.328-.192-4.896-.032-1.568-.048-2.88-.048-3.936v-9.936c.032-1.024.048-1.952.048-2.784 0-.384-.016-.88-.048-1.488s-.08-1.072-.144-1.392h4.08zm-18.384 5.232c.8.128 1.728.256 2.784.384 1.056.128 2.16.256 3.312.384 1.184.096 2.304.176 3.36.24 1.088.032 2.032.048 2.832.048 3.04 0 6.144-.112 9.312-.336 3.2-.224 6.352-.592 9.456-1.104l-.048 3.504c-1.76.192-3.68.384-5.76.576-2.08.192-4.224.352-6.432.48-2.176.128-4.336.192-6.48.192-1.12 0-2.448-.048-3.984-.144a203.382 203.382 0 01-4.56-.336 571.73 571.73 0 01-3.744-.336l-.048-3.552zm-.24 10.176c.864.128 1.824.256 2.88.384a51.59 51.59 0 003.264.288c1.12.064 2.192.128 3.216.192 1.024.032 1.936.048 2.736.048 2.336 0 4.592-.048 6.768-.144 2.208-.128 4.368-.288 6.48-.48 2.144-.224 4.256-.496 6.336-.816l-.048 3.6c-1.6.224-3.2.416-4.8.576-1.568.128-3.152.24-4.752.336-1.568.096-3.184.176-4.848.24-1.632.032-3.36.048-5.184.048-1.088 0-2.352-.032-3.792-.096a219.69 219.69 0 01-4.32-.24 89.311 89.311 0 01-3.888-.336l-.048-3.6zm69.219-15.312c0 .16-.04.448-.1.864-.03.416-.06.832-.1 1.248 0 .384-.01.688-.04.912-.04.608-.05 1.44-.05 2.496v7.248c.03 1.28.05 2.48.05 3.6.03 1.12.04 2.064.04 2.832l-3.691-1.824v-5.184c0-1.216-.016-2.416-.048-3.6a101.82 101.82 0 00-.144-5.568c-.032-.64-.08-1.248-.144-1.824a25.539 25.539 0 00-.144-1.2h4.371zm-25.491 6.672c1.312 0 2.8-.016 4.464-.048 1.664-.064 3.424-.128 5.28-.192 1.888-.064 3.792-.112 5.712-.144 1.92-.032 3.76-.064 5.52-.096a278.08 278.08 0 014.945-.048h8.35c1.28 0 2.4.016 3.36.048h2.35l-.05 3.552c-1.34-.064-3.15-.112-5.42-.144-2.24-.064-5.12-.096-8.64-.096-2.08 0-4.255.032-6.527.096-2.24.032-4.496.08-6.768.144-2.272.064-4.48.16-6.624.288-2.112.096-4.064.208-5.856.336l-.096-3.696zm25.201 13.968c0 2.112-.32 3.888-.96 5.328-.61 1.44-1.473 2.512-2.593 3.216-1.088.704-2.368 1.056-3.84 1.056-.992 0-1.968-.16-2.928-.48a8.32 8.32 0 01-2.544-1.536 8.074 8.074 0 01-1.776-2.544c-.416-1.024-.624-2.176-.624-3.456 0-1.6.384-3.024 1.152-4.272a8.496 8.496 0 017.296-4.08c1.888 0 3.44.432 4.657 1.296 1.25.832 2.19 1.984 2.83 3.456.64 1.44.96 3.088.96 4.944 0 1.6-.24 3.232-.72 4.896-.45 1.664-1.22 3.264-2.3 4.8-1.059 1.536-2.515 2.944-4.371 4.224-1.824 1.248-4.144 2.288-6.96 3.12l-3.216-3.168c2.176-.512 4.128-1.168 5.856-1.968 1.728-.8 3.184-1.776 4.368-2.928a11.437 11.437 0 002.688-4.032c.64-1.536.955-3.296.955-5.28 0-2.176-.459-3.744-1.387-4.704-.928-.96-2.048-1.44-3.36-1.44-.832 0-1.616.208-2.352.624-.736.384-1.344.96-1.824 1.728-.448.768-.672 1.68-.672 2.736 0 1.504.48 2.672 1.44 3.504.992.832 2.144 1.248 3.456 1.248.992 0 1.84-.272 2.544-.816.704-.576 1.2-1.424 1.488-2.544.32-1.152.352-2.576.096-4.272l2.641 1.344zm22.72 5.664c1.38 0 2.61.336 3.7 1.008a7.42 7.42 0 012.64 2.64c.67 1.088 1.01 2.304 1.01 3.648a7.07 7.07 0 01-1.01 3.696 7.97 7.97 0 01-2.64 2.64c-1.09.672-2.32 1.008-3.7 1.008-1.34 0-2.57-.336-3.69-1.008a7.97 7.97 0 01-2.64-2.64c-.64-1.12-.96-2.352-.96-3.696 0-1.344.32-2.56.96-3.648.67-1.12 1.56-2 2.68-2.64a6.975 6.975 0 013.65-1.008zm0 12.192c1.38 0 2.53-.464 3.46-1.392.96-.96 1.44-2.128 1.44-3.504 0-.864-.23-1.664-.67-2.4-.42-.736-1-1.328-1.73-1.776-.74-.448-1.57-.672-2.5-.672-.86 0-1.66.224-2.4.672a5.204 5.204 0 00-1.77 1.776 4.521 4.521 0 00-.68 2.4c0 .896.23 1.728.68 2.496a5.204 5.204 0 001.77 1.776c.74.416 1.54.624 2.4.624z" fill="#fff"/></svg>